<?xml version="1.0" encoding="UTF-8"?>
<svg width="410px" height="79px" viewBox="0 0 410 79" version="1.1" xmlns="http://www.w3.org/2000/svg" xmlns:xlink="http://www.w3.org/1999/xlink">
    <!-- Generator: Sketch 42 (36781) - http://www.bohemiancoding.com/sketch -->
    <title>logo</title>
    <desc>Created with Sketch.</desc>
    <defs></defs>
    <g id="Page-1" stroke="none" stroke-width="1" fill="none" fill-rule="evenodd">
        <g id="logo">
            <g>
                <g>
                    <g>
                        <path d="M30.6268657,71 L405.985075,71" id="Line" stroke="#444444" stroke-width="8" stroke-linecap="square"></path>
                        <path d="M22.8515625,18.734375 L22.8515625,62.3671875 C22.8515625,64.9192836 22.4804725,67.1718652 21.7382812,69.125 C20.99609,71.0781348 19.921882,72.7187434 18.515625,74.046875 C17.109368,75.3750066 15.4101662,76.3776008 13.4179688,77.0546875 C11.4257713,77.7317742 9.1797,78.0703125 6.6796875,78.0703125 C5.55989023,78.0703125 4.53125469,78.02474 3.59375,77.9335938 C2.65624531,77.8424475 1.61458906,77.666668 0.46875,77.40625 L0.46875,67.4453125 C1.14583672,67.5494797 1.76432012,67.6341143 2.32421875,67.6992188 C2.88411738,67.7643232 3.50260078,67.796875 4.1796875,67.796875 C5.95052969,67.796875 7.30468281,67.3541711 8.2421875,66.46875 C9.17969219,65.5833289 9.6484375,64.2161551 9.6484375,62.3671875 L9.6484375,18.734375 L22.8515625,18.734375 Z M8.671875,7.8359375 C8.671875,6.89843281 8.84765449,6.03906641 9.19921875,5.2578125 C9.55078301,4.47655859 10.0520801,3.79948203 10.703125,3.2265625 C11.3541699,2.65364297 12.1289018,2.21093906 13.0273438,1.8984375 C13.9257857,1.58593594 14.9088488,1.4296875 15.9765625,1.4296875 C17.070318,1.4296875 18.0598914,1.58593594 18.9453125,1.8984375 C19.8307336,2.21093906 20.5989551,2.65364297 21.25,3.2265625 C21.9010449,3.79948203 22.402342,4.47655859 22.7539062,5.2578125 C23.1054705,6.03906641 23.28125,6.89843281 23.28125,7.8359375 C23.28125,8.77344219 23.1054705,9.63280859 22.7539062,10.4140625 C22.402342,11.1953164 21.9010449,11.872393 21.25,12.4453125 C20.5989551,13.018232 19.8307336,13.4609359 18.9453125,13.7734375 C18.0598914,14.0859391 17.070318,14.2421875 15.9765625,14.2421875 C14.9088488,14.2421875 13.9257857,14.0859391 13.0273438,13.7734375 C12.1289018,13.4609359 11.3541699,13.018232 10.703125,12.4453125 C10.0520801,11.872393 9.55078301,11.1953164 9.19921875,10.4140625 C8.84765449,9.63280859 8.671875,8.77344219 8.671875,7.8359375 Z M23.3328123,39.4765625 C23.3328123,36.4036305 23.7755162,33.5520965 24.6609373,30.921875 C25.5463584,28.2916535 26.8484287,26.0130305 28.5671873,24.0859375 C30.2859459,22.1588445 32.4148309,20.6549533 34.9539061,19.5742188 C37.4929813,18.4934842 40.4031084,17.953125 43.6843748,17.953125 C47.0177248,17.953125 49.9538934,18.4934842 52.4929686,19.5742188 C55.0320438,20.6549533 57.1609287,22.1588445 58.8796873,24.0859375 C60.5984459,26.0130305 61.9005162,28.2916535 62.7859373,30.921875 C63.6713584,33.5520965 64.1140623,36.4036305 64.1140623,39.4765625 L64.1140623,40.296875 C64.1140623,43.3958488 63.6778688,46.2538932 62.8054686,48.8710937 C61.9330684,51.4882943 60.6375084,53.7538967 58.9187498,55.6679688 C57.1999912,57.5820408 55.0711063,59.0794217 52.5320311,60.1601562 C49.9929559,61.2408908 47.069808,61.78125 43.7624998,61.78125 C40.4551916,61.78125 37.5320438,61.2408908 34.9929686,60.1601562 C32.4538934,59.0794217 30.3184981,57.5820408 28.5867186,55.6679688 C26.8549391,53.7538967 25.5463584,51.4882943 24.6609373,48.8710937 C23.7755162,46.2538932 23.3328123,43.3958488 23.3328123,40.296875 L23.3328123,39.4765625 Z M36.4968748,40.296875 C36.4968748,41.8854246 36.6075508,43.3697848 36.8289061,44.75 C37.0502613,46.1302152 37.4408824,47.3281199 38.0007811,48.34375 C38.5606797,49.3593801 39.3093701,50.1601533 40.2468748,50.7460938 C41.1843795,51.3320342 42.3562428,51.625 43.7624998,51.625 C45.142715,51.625 46.2950473,51.3320342 47.2195311,50.7460938 C48.1440148,50.1601533 48.8796846,49.3593801 49.4265623,48.34375 C49.97344,47.3281199 50.3640611,46.1302152 50.5984373,44.75 C50.8328135,43.3697848 50.9499998,41.8854246 50.9499998,40.296875 L50.9499998,39.4765625 C50.9499998,37.9400965 50.8393238,36.4817777 50.6179686,35.1015625 C50.3966133,33.7213473 50.0059922,32.5169322 49.4460936,31.4882812 C48.8861949,30.4596303 48.1375045,29.639326 47.1999998,29.0273438 C46.2624951,28.4153615 45.0906318,28.109375 43.6843748,28.109375 C42.3041596,28.109375 41.1518273,28.4153615 40.2273436,29.0273438 C39.3028598,29.639326 38.56719,30.4596303 38.0203123,31.4882812 C37.4734346,32.5169322 37.0828135,33.7213473 36.8484373,35.1015625 C36.6140611,36.4817777 36.4968748,37.9400965 36.4968748,39.4765625 L36.4968748,40.296875 Z M85.0640621,61.78125 C81.6265449,61.78125 78.553659,61.2343805 75.8453121,60.140625 C73.1369652,59.0468695 70.8583422,57.5625094 69.0093746,55.6875 C67.160407,53.8124906 65.7476608,51.6380332 64.7710934,49.1640625 C63.794526,46.6900918 63.3062496,44.0599098 63.3062496,41.2734375 L63.3062496,39.7890625 C63.3062496,36.7161305 63.7294225,33.8450654 64.5757809,31.1757812 C65.4221393,28.5064971 66.6981682,26.1953223 68.4039059,24.2421875 C70.1096436,22.2890527 72.2320182,20.7526098 74.7710934,19.6328125 C77.3101686,18.5130152 80.2723785,17.953125 83.6578121,17.953125 C86.6526188,17.953125 89.341394,18.434891 91.7242184,19.3984375 C94.1070428,20.361984 96.1252518,21.7421785 97.7789059,23.5390625 C99.43256,25.3359465 100.695568,27.5104039 101.567968,30.0625 C102.440369,32.6145961 102.876562,35.4791508 102.876562,38.65625 L102.876562,44.0078125 L76.7046871,44.0078125 C77.1734395,46.377616 78.202075,48.2395766 79.7906246,49.59375 C81.3791742,50.9479234 83.4364453,51.625 85.9624996,51.625 C87.7593836,51.625 89.5236889,51.2864617 91.2554684,50.609375 C92.9872479,49.9322883 94.4781184,48.8125078 95.7281246,47.25 L101.74375,54.359375 C101.066663,55.2968797 100.200786,56.2083289 99.1460934,57.09375 C98.0914006,57.9791711 96.8609441,58.7669236 95.4546871,59.4570312 C94.0484301,60.1471389 92.472925,60.7070291 90.7281246,61.1367188 C88.9833242,61.5664084 87.0953223,61.78125 85.0640621,61.78125 Z M83.5796871,28.109375 C82.4598899,28.109375 81.4963578,28.3046855 80.6890621,28.6953125 C79.8817664,29.0859395 79.2112002,29.6197883 78.6773434,30.296875 C78.1434865,30.9739617 77.7203137,31.7812453 77.4078121,32.71875 C77.0953106,33.6562547 76.8609379,34.6718695 76.7046871,35.765625 L89.9859371,35.765625 L89.9859371,34.75 C90.0380207,32.6406145 89.5041719,31.0065162 88.3843746,29.8476562 C87.2645774,28.6887963 85.6630309,28.109375 83.5796871,28.109375 Z M103.748437,54.828125 C103.748437,53.8906203 103.924216,53.0182332 104.275781,52.2109375 C104.627345,51.4036418 105.122132,50.7070342 105.760156,50.1210938 C106.39818,49.5351533 107.159891,49.0729184 108.045312,48.734375 C108.930733,48.3958316 109.920306,48.2265625 111.014062,48.2265625 C112.081776,48.2265625 113.064839,48.3958316 113.963281,48.734375 C114.861723,49.0729184 115.629944,49.5351533 116.267968,50.1210938 C116.905992,50.7070342 117.400779,51.4036418 117.752343,52.2109375 C118.103907,53.0182332 118.279687,53.8906203 118.279687,54.828125 C118.279687,55.7656297 118.103907,56.6380168 117.752343,57.4453125 C117.400779,58.2526082 116.905992,58.9492158 116.267968,59.5351562 C115.629944,60.1210967 114.861723,60.5833316 113.963281,60.921875 C113.064839,61.2604184 112.081776,61.4296875 111.014062,61.4296875 C109.920306,61.4296875 108.930733,61.2604184 108.045312,60.921875 C107.159891,60.5833316 106.39818,60.1210967 105.760156,59.5351562 C105.122132,58.9492158 104.627345,58.2526082 104.275781,57.4453125 C103.924216,56.6380168 103.748437,55.7656297 103.748437,54.828125 Z M139.620312,51.625 C141.469279,51.625 142.901557,51.1237029 143.917187,50.1210938 C144.932817,49.1184846 145.427604,47.718759 145.401562,45.921875 L157.745312,45.921875 C157.745312,48.3177203 157.296097,50.4856674 156.397655,52.4257812 C155.499213,54.3658951 154.255736,56.0325451 152.667187,57.4257812 C151.078637,58.8190174 149.190635,59.8932254 147.003124,60.6484375 C144.815613,61.4036496 142.458866,61.78125 139.932812,61.78125 C136.625504,61.78125 133.734907,61.2343805 131.260937,60.140625 C128.786966,59.0468695 126.723185,57.5429783 125.06953,55.6289062 C123.415876,53.7148342 122.172399,51.4492318 121.339062,48.8320312 C120.505724,46.2148307 120.089062,43.3828277 120.089062,40.3359375 L120.089062,39.4375 C120.089062,36.3906098 120.505724,33.5520965 121.339062,30.921875 C122.172399,28.2916535 123.409366,26.0195408 125.049999,24.1054688 C126.690632,22.1913967 128.741393,20.6875055 131.202343,19.59375 C133.663293,18.4999945 136.534358,17.953125 139.815624,17.953125 C142.471888,17.953125 144.900249,18.3307254 147.10078,19.0859375 C149.301312,19.8411496 151.189314,20.941399 152.764843,22.3867188 C154.340372,23.8320385 155.564318,25.6093645 156.436718,27.71875 C157.309118,29.8281355 157.745312,32.2239449 157.745312,34.90625 L145.401562,34.90625 C145.401562,33.9687453 145.290886,33.0833375 145.06953,32.25 C144.848175,31.4166625 144.490106,30.6940135 143.995312,30.0820312 C143.500518,29.470049 142.882034,28.988283 142.139843,28.6367188 C141.397652,28.2851545 140.518754,28.109375 139.503124,28.109375 C138.148951,28.109375 137.061722,28.4153615 136.241405,29.0273438 C135.421089,29.639326 134.789585,30.4596303 134.346874,31.4882812 C133.904164,32.5169322 133.611198,33.7213473 133.467968,35.1015625 C133.324738,36.4817777 133.253124,37.9270758 133.253124,39.4375 L133.253124,40.3359375 C133.253124,41.8984453 133.324738,43.3632744 133.467968,44.7304687 C133.611198,46.0976631 133.904164,47.2955678 134.346874,48.3242188 C134.789585,49.3528697 135.43411,50.1601533 136.280468,50.7460938 C137.126826,51.3320342 138.240097,51.625 139.620312,51.625 Z M171.898437,61 L158.695312,61 L158.695312,18.734375 L171.898437,18.734375 L171.898437,61 Z M157.914062,7.8359375 C157.914062,6.89843281 158.089841,6.03906641 158.441405,5.2578125 C158.79297,4.47655859 159.294267,3.79948203 159.945312,3.2265625 C160.596356,2.65364297 161.364578,2.21093906 162.249999,1.8984375 C163.13542,1.58593594 164.124994,1.4296875 165.218749,1.4296875 C166.312505,1.4296875 167.302078,1.58593594 168.187499,1.8984375 C169.07292,2.21093906 169.841142,2.65364297 170.492187,3.2265625 C171.143231,3.79948203 171.644529,4.47655859 171.996093,5.2578125 C172.347657,6.03906641 172.523437,6.89843281 172.523437,7.8359375 C172.523437,8.77344219 172.347657,9.63280859 171.996093,10.4140625 C171.644529,11.1953164 171.143231,11.872393 170.492187,12.4453125 C169.841142,13.018232 169.07292,13.4609359 168.187499,13.7734375 C167.302078,14.0859391 166.312505,14.2421875 165.218749,14.2421875 C164.124994,14.2421875 163.13542,14.0859391 162.249999,13.7734375 C161.364578,13.4609359 160.596356,13.018232 159.945312,12.4453125 C159.294267,11.872393 158.79297,11.1953164 158.441405,10.4140625 C158.089841,9.63280859 157.914062,8.77344219 157.914062,7.8359375 Z M198.512499,61 C198.226039,60.4791641 197.985156,59.8997428 197.789843,59.2617188 C197.594529,58.6236947 197.41875,57.9401078 197.262499,57.2109375 C196.246869,58.4869855 194.931778,59.5677039 193.317186,60.453125 C191.702595,61.3385461 189.632303,61.78125 187.106249,61.78125 C185.153114,61.78125 183.310685,61.4687531 181.578905,60.84375 C179.847126,60.2187469 178.330214,59.3528701 177.028124,58.2460938 C175.726034,57.1393174 174.690888,55.8046953 173.922655,54.2421875 C173.154422,52.6796797 172.770311,50.9609469 172.770311,49.0859375 C172.770311,46.8984266 173.167443,44.9453211 173.961718,43.2265625 C174.755992,41.5078039 175.966918,40.0559955 177.59453,38.8710938 C179.222142,37.686192 181.279414,36.7747428 183.766405,36.1367188 C186.253397,35.4986947 189.202586,35.1796875 192.614061,35.1796875 L196.676561,35.1796875 L196.676561,32.953125 C196.676561,31.156241 196.28594,29.7369844 195.504686,28.6953125 C194.723432,27.6536406 193.434383,27.1328125 191.637499,27.1328125 C190.127075,27.1328125 188.968232,27.5104129 188.160936,28.265625 C187.353641,29.0208371 186.949999,30.1796797 186.949999,31.7421875 L173.785936,31.7421875 C173.785936,29.7890527 174.22213,27.9661543 175.09453,26.2734375 C175.96693,24.5807207 177.210407,23.122402 178.824999,21.8984375 C180.43959,20.674473 182.386185,19.710941 184.664843,19.0078125 C186.9435,18.304684 189.489047,17.953125 192.301561,17.953125 C194.827616,17.953125 197.164832,18.2656219 199.31328,18.890625 C201.461728,19.5156281 203.317179,20.4596291 204.879686,21.7226562 C206.442194,22.9856834 207.66614,24.5611885 208.551561,26.4492188 C209.436982,28.337249 209.879686,30.5312375 209.879686,33.03125 L209.879686,50.3359375 C209.879686,51.7161527 209.918748,52.9140574 209.996874,53.9296875 C210.074999,54.9453176 210.192186,55.8372357 210.348436,56.6054688 C210.504687,57.3737018 210.693487,58.0572887 210.914843,58.65625 C211.136198,59.2552113 211.390102,59.8151016 211.676561,60.3359375 L211.676561,61 L198.512499,61 Z M190.270311,52.40625 C191.910945,52.40625 193.271608,52.054691 194.352343,51.3515625 C195.433077,50.648434 196.207809,49.8541711 196.676561,48.96875 L196.676561,42.2109375 L192.535936,42.2109375 C191.311972,42.2109375 190.276826,42.3802066 189.430468,42.71875 C188.584109,43.0572934 187.907033,43.513018 187.399218,44.0859375 C186.891403,44.658857 186.526823,45.3164025 186.305468,46.0585938 C186.084112,46.800785 185.973436,47.5755168 185.973436,48.3828125 C185.973436,49.5807352 186.377078,50.5507775 187.184374,51.2929688 C187.99167,52.03516 189.020305,52.40625 190.270311,52.40625 Z M223.954686,18.734375 L224.384374,23.6953125 C225.816672,21.8203031 227.554936,20.3945361 229.599217,19.4179688 C231.643498,18.4414014 233.928632,17.953125 236.454686,17.953125 C238.407821,17.953125 240.198168,18.2330701 241.82578,18.7929688 C243.453392,19.3528674 244.853118,20.2773373 246.024999,21.5664062 C247.19688,22.8554752 248.101818,24.5481666 248.739842,26.6445312 C249.377866,28.7408959 249.696874,31.3255055 249.696874,34.3984375 L249.696874,61 L236.493749,61 L236.493749,34.359375 C236.493749,33.083327 236.357031,32.0416707 236.083592,31.234375 C235.810154,30.4270793 235.419532,29.7890648 234.911717,29.3203125 C234.403902,28.8515602 233.778909,28.5325529 233.036717,28.3632812 C232.294526,28.1940096 231.454691,28.109375 230.517186,28.109375 C229.110929,28.109375 227.945576,28.3828098 227.021092,28.9296875 C226.096609,29.4765652 225.347918,30.2187453 224.774999,31.15625 L224.774999,61 L211.610936,61 L211.610936,18.734375 L223.954686,18.734375 Z M254.592186,61 L254.592186,27.875 L248.459373,27.875 L248.459373,18.734375 L254.592186,18.734375 L254.592186,15.296875 C254.592186,12.8489461 254.969786,10.680999 255.724998,8.79296875 C256.480211,6.90493848 257.560929,5.32292305 258.967186,4.046875 C260.373443,2.77082695 262.072645,1.80729492 264.064842,1.15625 C266.05704,0.505205078 268.303111,0.1796875 270.803123,0.1796875 C271.922921,0.1796875 272.990618,0.257811719 274.006248,0.4140625 C275.021879,0.570313281 276.011452,0.765623828 276.974998,1 L277.014061,10.6875 C276.57135,10.557291 276.096095,10.4661461 275.58828,10.4140625 C275.080465,10.3619789 274.475002,10.3359375 273.771873,10.3359375 C271.844781,10.3359375 270.366931,10.7591104 269.33828,11.6054687 C268.309629,12.4518271 267.795311,13.6822836 267.795311,15.296875 L267.795311,18.734375 L276.037498,18.734375 L276.037498,27.875 L267.795311,27.875 L267.795311,61 L254.592186,61 Z M289.253123,61 L276.049998,61 L276.049998,1 L289.253123,1 L289.253123,61 Z M290.398436,39.4765625 C290.398436,36.4036305 290.841139,33.5520965 291.726561,30.921875 C292.611982,28.2916535 293.914052,26.0130305 295.632811,24.0859375 C297.351569,22.1588445 299.480454,20.6549533 302.019529,19.5742188 C304.558605,18.4934842 307.468732,17.953125 310.749998,17.953125 C314.083348,17.953125 317.019517,18.4934842 319.558592,19.5742188 C322.097667,20.6549533 324.226552,22.1588445 325.945311,24.0859375 C327.664069,26.0130305 328.966139,28.2916535 329.851561,30.921875 C330.736982,33.5520965 331.179686,36.4036305 331.179686,39.4765625 L331.179686,40.296875 C331.179686,43.3958488 330.743492,46.2538932 329.871092,48.8710937 C328.998692,51.4882943 327.703132,53.7538967 325.984373,55.6679688 C324.265614,57.5820408 322.13673,59.0794217 319.597654,60.1601562 C317.058579,61.2408908 314.135431,61.78125 310.828123,61.78125 C307.520815,61.78125 304.597667,61.2408908 302.058592,60.1601562 C299.519517,59.0794217 297.384121,57.5820408 295.652342,55.6679688 C293.920562,53.7538967 292.611982,51.4882943 291.726561,48.8710937 C290.841139,46.2538932 290.398436,43.3958488 290.398436,40.296875 L290.398436,39.4765625 Z M303.562498,40.296875 C303.562498,41.8854246 303.673174,43.3697848 303.894529,44.75 C304.115885,46.1302152 304.506506,47.3281199 305.066404,48.34375 C305.626303,49.3593801 306.374993,50.1601533 307.312498,50.7460938 C308.250003,51.3320342 309.421866,51.625 310.828123,51.625 C312.208338,51.625 313.360671,51.3320342 314.285154,50.7460938 C315.209638,50.1601533 315.945308,49.3593801 316.492186,48.34375 C317.039063,47.3281199 317.429684,46.1302152 317.664061,44.75 C317.898437,43.3697848 318.015623,41.8854246 318.015623,40.296875 L318.015623,39.4765625 C318.015623,37.9400965 317.904947,36.4817777 317.683592,35.1015625 C317.462237,33.7213473 317.071615,32.5169322 316.511717,31.4882812 C315.951818,30.4596303 315.203128,29.639326 314.265623,29.0273438 C313.328118,28.4153615 312.156255,28.109375 310.749998,28.109375 C309.369783,28.109375 308.217451,28.4153615 307.292967,29.0273438 C306.368483,29.639326 305.632813,30.4596303 305.085936,31.4882812 C304.539058,32.5169322 304.148437,33.7213473 303.914061,35.1015625 C303.679684,36.4817777 303.562498,37.9400965 303.562498,39.4765625 L303.562498,40.296875 Z M343.77031,18.734375 L344.199998,23.6953125 C345.632297,21.8203031 347.370561,20.3945361 349.414842,19.4179688 C351.459123,18.4414014 353.744256,17.953125 356.27031,17.953125 C358.223445,17.953125 360.013792,18.2330701 361.641404,18.7929688 C363.269016,19.3528674 364.668742,20.2773373 365.840623,21.5664062 C367.012504,22.8554752 367.917443,24.5481666 368.555467,26.6445312 C369.193491,28.7408959 369.512498,31.3255055 369.512498,34.3984375 L369.512498,61 L356.309373,61 L356.309373,34.359375 C356.309373,33.083327 356.172656,32.0416707 355.899217,31.234375 C355.625778,30.4270793 355.235157,29.7890648 354.727342,29.3203125 C354.219527,28.8515602 353.594533,28.5325529 352.852342,28.3632812 C352.11015,28.1940096 351.270315,28.109375 350.33281,28.109375 C348.926553,28.109375 347.7612,28.3828098 346.836717,28.9296875 C345.912233,29.4765652 345.163542,30.2187453 344.590623,31.15625 L344.590623,61 L331.42656,61 L331.42656,18.734375 L343.77031,18.734375 Z M391.946873,61.78125 C388.509356,61.78125 385.43647,61.2343805 382.728123,60.140625 C380.019776,59.0468695 377.741153,57.5625094 375.892185,55.6875 C374.043218,53.8124906 372.630471,51.6380332 371.653904,49.1640625 C370.677337,46.6900918 370.18906,44.0599098 370.18906,41.2734375 L370.18906,39.7890625 C370.18906,36.7161305 370.612233,33.8450654 371.458591,31.1757812 C372.30495,28.5064971 373.580979,26.1953223 375.286716,24.2421875 C376.992454,22.2890527 379.114829,20.7526098 381.653904,19.6328125 C384.192979,18.5130152 387.155189,17.953125 390.540623,17.953125 C393.535429,17.953125 396.224205,18.434891 398.607029,19.3984375 C400.989853,20.361984 403.008062,21.7421785 404.661716,23.5390625 C406.315371,25.3359465 407.578379,27.5104039 408.450779,30.0625 C409.323179,32.6145961 409.759373,35.4791508 409.759373,38.65625 L409.759373,44.0078125 L383.587498,44.0078125 C384.05625,46.377616 385.084886,48.2395766 386.673435,49.59375 C388.261985,50.9479234 390.319256,51.625 392.84531,51.625 C394.642194,51.625 396.406499,51.2864617 398.138279,50.609375 C399.870058,49.9322883 401.360929,48.8125078 402.610935,47.25 L408.62656,54.359375 C407.949473,55.2968797 407.083597,56.2083289 406.028904,57.09375 C404.974211,57.9791711 403.743755,58.7669236 402.337498,59.4570312 C400.931241,60.1471389 399.355736,60.7070291 397.610935,61.1367188 C395.866135,61.5664084 393.978133,61.78125 391.946873,61.78125 Z M390.462498,28.109375 C389.3427,28.109375 388.379168,28.3046855 387.571873,28.6953125 C386.764577,29.0859395 386.094011,29.6197883 385.560154,30.296875 C385.026297,30.9739617 384.603124,31.7812453 384.290623,32.71875 C383.978121,33.6562547 383.743748,34.6718695 383.587498,35.765625 L396.868748,35.765625 L396.868748,34.75 C396.920831,32.6406145 396.386982,31.0065162 395.267185,29.8476562 C394.147388,28.6887963 392.545841,28.109375 390.462498,28.109375 Z" id="joe.cianflone" fill="#444444"></path>
                    </g>
                </g>
            </g>
        </g>
    </g>
</svg>